<?xml version="1.0" standalone="no"?>
<!DOCTYPE svg PUBLIC "-//W3C//DTD SVG 20010904//EN"
 "http://www.w3.org/TR/2001/REC-SVG-20010904/DTD/svg10.dtd">
<svg version="1.0" xmlns="http://www.w3.org/2000/svg"
 width="512.000000pt" height="512.000000pt" viewBox="0 0 512.000000 512.000000"
 preserveAspectRatio="xMidYMid meet">
<metadata>
Created by potrace 1.14, written by Peter Selinger 2001-2017
</metadata>
<g transform="translate(0.000000,512.000000) scale(0.100000,-0.100000)"
fill="#000000" stroke="none">
<path d="M485 5100 c-182 -49 -333 -170 -413 -331 -76 -154 -72 -33 -72 -1871
0 -1010 4 -1657 10 -1672 26 -68 89 -107 164 -101 57 4 39 -9 421 309 165 138
308 257 319 266 23 18 102 84 136 114 14 11 48 40 76 63 l51 42 1234 3 1234 3
73 27 c105 38 178 84 253 159 92 91 161 220 177 329 4 25 7 522 7 1105 l0
1060 -23 65 c-80 222 -242 374 -462 430 -73 19 -124 19 -1595 19 -1448 -1
-1523 -2 -1590 -19z m3113 -312 c96 -24 170 -88 215 -186 l22 -47 0 -1040 0
-1040 -27 -52 c-46 -87 -110 -142 -197 -167 -48 -14 -192 -16 -1276 -16 -673
0 -1237 -3 -1253 -6 -28 -6 -118 -71 -196 -142 -17 -15 -41 -34 -52 -42 -12
-8 -45 -36 -75 -62 -30 -25 -101 -85 -159 -133 -58 -48 -116 -97 -130 -108
-100 -86 -139 -117 -144 -117 -3 0 -6 648 -6 1441 0 1050 3 1453 11 1487 14
55 61 129 107 167 18 15 59 38 90 51 l57 23 1483 1 c1107 0 1495 -3 1530 -12z"/>
<path d="M1053 4145 c-17 -8 -44 -31 -60 -51 -23 -31 -28 -47 -28 -93 1 -63
19 -98 69 -134 l31 -22 1016 0 1016 0 37 29 c49 37 69 85 61 143 -7 53 -26 85
-69 116 l-31 22 -1005 2 c-843 1 -1010 -1 -1037 -12z"/>
<path d="M1075 3513 c-35 -9 -87 -55 -102 -91 -17 -41 -10 -111 14 -148 8 -14
30 -35 47 -47 l31 -22 696 0 696 0 36 28 c90 68 86 192 -7 261 -27 21 -37 21
-709 22 -375 1 -691 0 -702 -3z"/>
<path d="M4413 3825 c-34 -15 -76 -65 -88 -103 -25 -84 43 -185 132 -197 176
-23 257 -75 316 -203 l22 -47 3 -1388 c2 -1120 0 -1387 -10 -1381 -15 9 -91
67 -98 75 -3 3 -39 32 -80 64 -41 33 -82 65 -90 72 -111 91 -281 221 -303 230
-21 10 -295 13 -1178 13 -842 0 -1163 3 -1197 12 -96 24 -171 89 -214 186 -17
36 -22 72 -25 157 -5 165 -10 191 -44 230 -75 86 -222 62 -266 -44 -24 -56
-13 -323 17 -411 56 -168 173 -305 321 -377 77 -38 157 -63 219 -69 14 -1 527
-2 1140 -3 l1116 -1 149 -120 c192 -155 191 -154 381 -306 89 -71 174 -139
190 -152 102 -82 208 -76 270 15 18 27 19 78 19 1633 l0 1605 -23 70 c-57 172
-174 310 -323 382 -46 22 -106 46 -134 53 -80 19 -186 21 -222 5z"/>
</g>
</svg>
